<svg version="1.1" id="Layer_1" xmlns="http://www.w3.org/2000/svg" xmlns:xlink="http://www.w3.org/1999/xlink" x="0px" y="0px" viewBox="0 0 477.3 140.3" style="enable-background:new 0 0 477.3 140.3;" xml:space="preserve">
 <style type="text/css">
  .st0{fill:#107C10;}
 </style>
 <g>
  <g>
   <path class="st0" d="M70.1,56.3C70.1,56.3,70.2,56.3,70.1,56.3c21.1,16.1,57,55.6,46.1,66.7c-12.4,10.8-28.5,17.3-46.1,17.3
			s-33.9-6.5-46.1-17.3c-11-11.2,25-50.7,45.9-66.6C69.9,56.3,70.1,56.3,70.1,56.3L70.1,56.3z">
   </path>
   <path class="st0" d="M106.6,10.3C95.9,3.8,84.2,0,70.1,0S44.2,3.8,33.5,10.3c-0.2,0-0.2,0.2-0.2,0.3s0.2,0.2,0.3,0.2
			c13.6-3,34.2,8.7,36.2,10h0.3c1.9-1.2,22.5-12.9,36.2-10c0.2,0,0.3,0,0.3-0.2S106.8,10.3,106.6,10.3L106.6,10.3z">
   </path>
   <path class="st0" d="M21,20.1c-0.2,0-0.2,0.2-0.3,0.2C7.9,33,0,50.7,0,70.1c0,15.9,5.4,30.7,14.3,42.5c0,0.2,0.2,0.2,0.3,0.2
			c0.2,0,0.2-0.2,0-0.3C9.3,95.7,36.7,55.7,50.8,39l0.2-0.2c0-0.2,0-0.2-0.2-0.2C29.4,17.3,22.2,19.6,21,20.1L21,20.1z">
   </path>
   <path class="st0" d="M89.3,38.4l-0.2,0.2c0,0,0,0.2,0.2,0.2c14.2,16.8,41.4,56.8,36.2,73.4v0.3c0.2,0,0.3,0,0.3-0.2
			c8.9-11.7,14.3-26.6,14.3-42.5c0-19.4-7.9-37-20.8-49.8c-0.2-0.2-0.2-0.2-0.3-0.2C117.9,19.6,110.8,17.3,89.3,38.4L89.3,38.4z">
   </path>
  </g>
  <path class="st0" d="M241.7,113.3h-14.4L202.4,79l-25,34.4h-14.4L195,69.1l-29.4-40.7H180l22.4,30.8l22.4-30.8h14.4l-29.6,40.7
		L241.7,113.3z M316.7,89.2c0,7.4-2.5,13.4-7.4,17.6s-12,6.5-21.1,6.5h-39.6V75.4h-19l7.9-10.9h11.1V28.4h38.1
		c8.6,0,15.2,2.1,19.7,6.2c4.6,4.1,6.9,9.5,6.9,16c0,8.1-3.7,14.4-11.1,18.5c4.8,1.8,8.3,4.6,10.7,7.9
		C315.5,80.4,316.7,84.6,316.7,89.2L316.7,89.2z M261.4,64.7h24.3c4.9,0,8.6-1.1,11.1-3.3c2.5-2.1,3.7-5.5,3.7-9.9
		c0-3.7-1.2-6.7-3.9-8.8c-2.5-2.1-6.2-3.2-10.9-3.2h-24.3L261.4,64.7L261.4,64.7z M303.7,88.8c0-4.4-1.4-7.9-4.1-10
		c-2.6-2.3-6.7-3.3-12-3.3h-26.3V102h26.1c5.1,0,9.2-1.2,12-3.3C302.3,96.4,303.7,93.1,303.7,88.8L303.7,88.8z M404.1,70.9
		c0,6.5-0.9,12.7-2.8,18c-1.9,5.3-4.8,10-8.5,14.1c-3.9,4.1-8.3,7.2-13.2,9.2c-4.9,2.1-10.6,3-16.9,3c-6.2,0-12-1.1-16.9-3
		c-4.9-2.1-9.3-5.1-13.2-9.2c-3.9-4.1-6.7-8.8-8.6-14.1c-1.9-5.3-2.8-11.5-2.8-18c0-6.5,0.9-12.7,2.8-18c1.9-5.3,4.8-10.2,8.6-14.3
		c3.7-4.1,8.1-7,13.2-9.2c4.9-1.9,10.7-3,16.9-3c6.2,0,11.8,1.1,16.9,3c4.9,1.9,9.5,5.1,13.2,9.2c3.7,4.1,6.7,9,8.5,14.3
		C403.1,58.2,404.1,64.2,404.1,70.9L404.1,70.9z M334.5,70.9c0,10,2.6,18,7.8,23.8c5.1,5.8,11.8,8.8,20.4,8.8c8.5,0,15.3-3,20.4-8.8
		c5.1-5.8,7.6-13.7,7.6-23.8s-2.5-18.1-7.6-24c-5.1-5.8-12-8.8-20.4-8.8s-15.3,3-20.4,8.8C337.2,52.9,334.5,60.8,334.5,70.9
		L334.5,70.9z M445,69.1l29.6-40.7h-14.4l-22.4,30.8l-22.4-30.8H401l29.6,40.7l-32.1,44.2H413L437.8,79l25,34.4h14.4L445,69.1z">
  </path>
 </g>
</svg>